{
  "accessors": [
    {
      "name": "Plano-Mesh_0_positions",
      "componentType": 5126,
      "count": 334,
      "min": [
        -0.7814369797706604,
        -0.05273199826478958,
        -1.0257450342178345
      ],
      "max": [
        0.7776200175285339,
        0.05273199826478958,
        1.149588942527771
      ],
      "type": "VEC3",
      "bufferView": 0,
      "byteOffset": 0
    },
    {
      "name": "Plano-Mesh_0_normals",
      "componentType": 5126,
      "count": 334,
      "min": [
        -0.992774248123169,
        -0.9999860525131226,
        -0.9815528988838196
      ],
      "max": [
        0.9794692397117615,
        0.9999860525131226,
        0.9747254848480225
      ],
      "type": "VEC3",
      "bufferView": 1,
      "byteOffset": 0
    },
    {
      "name": "Plano-Mesh_0_texcoords",
      "componentType": 5126,
      "count": 334,
      "min": [
        0.000014999999621068127,
        0
      ],
      "max": [
        0.9711499810218811,
        0.9999849796295166
      ],
      "type": "VEC2",
      "bufferView": 2,
      "byteOffset": 0
    },
    {
      "name": "Plano-Mesh_0_indices",
      "componentType": 5123,
      "count": 1218,
      "min": [
        0
      ],
      "max": [
        333
      ],
      "type": "SCALAR",
      "bufferView": 3,
      "byteOffset": 0
    }
  ],
  "asset": {
    "generator": "obj2gltf",
    "version": "2.0"
  },
  "buffers": [
    {
      "name": "mouse",
      "byteLength": 52392,
      "uri": "data:application/octet-stream;base64,"
    }
  ],
  "bufferViews": [
    {
      "name": "bufferView_0",
      "buffer": 0,
      "byteLength": 4008,
      "byteOffset": 0,
      "byteStride": 12,
      "target": 34962
    },
    {
      "name": "bufferView_1",
      "buffer": 0,
      "byteLength": 4008,
      "byteOffset": 4008,
      "byteStride": 12,
      "target": 34962
    },
    {
      "name": "bufferView_2",
      "buffer": 0,
      "byteLength": 2672,
      "byteOffset": 8016,
      "byteStride": 8,
      "target": 34962
    },
    {
      "name": "bufferView_3",
      "buffer": 0,
      "byteLength": 2436,
      "byteOffset": 10688,
      "target": 34963
    },
    {
      "buffer": 0,
      "byteOffset": 13124,
      "byteLength": 39267
    }
  ],
  "images": [
    {
      "name": "mouse",
      "mimeType": "image/png",
      "bufferView": 4
    }
  ],
  "materials": [
    {
      "name": "Materiais",
      "pbrMetallicRoughness": {
        "baseColorTexture": {
          "index": 0
        },
        "baseColorFactor": [
          1,
          1,
          1,
          1
        ],
        "metallicFactor": 0,
        "roughnessFactor": 0.775
      },
      "emissiveFactor": [
        0,
        0,
        0
      ],
      "alphaMode": "OPAQUE",
      "doubleSided": false
    }
  ],
  "meshes": [
    {
      "name": "Plano-Mesh",
      "primitives": [
        {
          "attributes": {
            "POSITION": 0,
            "NORMAL": 1,
            "TEXCOORD_0": 2
          },
          "indices": 3,
          "material": 0,
          "mode": 4
        }
      ]
    }
  ],
  "nodes": [
    {
      "name": "Plano",
      "mesh": 0
    }
  ],
  "samplers": [
    {
      "wrapS": 10497,
      "wrapT": 10497
    }
  ],
  "scene": 0,
  "scenes": [
    {
      "nodes": [
        0
      ]
    }
  ],
  "textures": [
    {
      "name": "mouse",
      "sampler": 0,
      "source": 0
    }
  ]
}
