# Blender v2.93.1 OBJ File: ''
# www.blender.org
mtllib table.mtl
o Cilindro_Cilindro.001
v -0.000615 -0.305858 -4.411813
v -0.000615 -0.000873 -4.000000
v 0.860087 -0.305858 -4.327041
v 0.779746 -0.000873 -3.923141
v 1.687712 -0.305858 -4.075984
v 1.530118 -0.000873 -3.695518
v 2.450457 -0.305858 -3.668288
v 2.221666 -0.000873 -3.325878
v 3.119007 -0.305858 -3.119623
v 2.827812 -0.000873 -2.828427
v 3.667673 -0.305858 -2.451072
v 3.325263 -0.000873 -2.222281
v 4.075368 -0.305858 -1.688328
v 3.694903 -0.000873 -1.530734
v 4.326425 -0.305858 -0.860702
v 3.922526 -0.000873 -0.780361
v 4.411197 -0.305858 0.000000
v 3.999384 -0.000873 0.000000
v 4.326425 -0.305858 0.860702
v 3.922526 -0.000873 0.780361
v 4.075368 -0.305858 1.688327
v 3.694903 -0.000873 1.530734
v 3.667673 -0.305858 2.451072
v 3.325263 -0.000873 2.222281
v 3.119007 -0.305858 3.119623
v 2.827812 -0.000873 2.828427
v 2.450456 -0.305858 3.668288
v 2.221665 -0.000873 3.325879
v 1.687712 -0.305858 4.075984
v 1.530118 -0.000873 3.695518
v 0.860086 -0.305858 4.327041
v 0.779746 -0.000873 3.923141
v -0.000616 -0.305858 4.411813
v -0.000616 -0.000873 4.000000
v -0.861317 -0.305858 4.327041
v -0.780976 -0.000873 3.923141
v -1.688943 -0.305858 4.075984
v -1.531349 -0.000873 3.695518
v -2.451688 -0.305858 3.668288
v -2.222897 -0.000873 3.325878
v -3.120238 -0.305858 3.119623
v -2.829042 -0.000873 2.828427
v -3.668903 -0.305858 2.451073
v -3.326493 -0.000873 2.222282
v -4.076599 -0.305858 1.688328
v -3.696133 -0.000873 1.530734
v -4.327656 -0.305858 0.860702
v -3.923756 -0.000873 0.780362
v -4.412428 -0.305858 -0.000000
v -4.000615 -0.000873 0.000000
v -4.327656 -0.305858 -0.860702
v -3.923756 -0.000873 -0.780362
v -4.076599 -0.305858 -1.688328
v -3.696133 -0.000873 -1.530734
v -3.668904 -0.305858 -2.451071
v -3.326494 -0.000873 -2.222280
v -3.120239 -0.305858 -3.119622
v -2.829043 -0.000873 -2.828427
v -2.451688 -0.305858 -3.668288
v -2.222897 -0.000873 -3.325878
v -1.688943 -0.305858 -4.075984
v -1.531349 -0.000873 -3.695518
v -0.861317 -0.305858 -4.327041
v -0.780976 -0.000873 -3.923141
v -0.000615 -1.046676 -4.000000
v 0.779746 -1.046676 -3.923141
v 1.530118 -1.046676 -3.695518
v 2.221666 -1.046676 -3.325878
v 2.827812 -1.046676 -2.828427
v 3.325263 -1.046676 -2.222281
v 3.694903 -1.046676 -1.530734
v 3.922526 -1.046676 -0.780361
v 3.999384 -1.046676 0.000000
v 3.922526 -1.046676 0.780361
v 3.694903 -1.046676 1.530734
v 3.325263 -1.046676 2.222281
v 2.827812 -1.046676 2.828427
v 2.221665 -1.046676 3.325879
v 1.530118 -1.046676 3.695518
v 0.779746 -1.046676 3.923141
v -0.000616 -1.046676 4.000000
v -0.780976 -1.046676 3.923141
v -1.531349 -1.046676 3.695518
v -2.222897 -1.046676 3.325878
v -2.829042 -1.046676 2.828427
v -3.326493 -1.046676 2.222282
v -3.696133 -1.046676 1.530734
v -3.923756 -1.046676 0.780362
v -4.000615 -1.046676 0.000000
v -3.923756 -1.046676 -0.780362
v -3.696133 -1.046676 -1.530734
v -3.326494 -1.046676 -2.222280
v -2.829043 -1.046676 -2.828427
v -2.222897 -1.046676 -3.325878
v -1.531349 -1.046676 -3.695518
v -0.780976 -1.046676 -3.923141
v -0.000615 -0.305858 -4.411813
v 0.860087 -0.305858 -4.327041
v 1.687712 -0.305858 -4.075984
v 2.450457 -0.305858 -3.668288
v 3.119007 -0.305858 -3.119623
v 3.667673 -0.305858 -2.451072
v 4.075368 -0.305858 -1.688328
v 4.326425 -0.305858 -0.860702
v 4.411197 -0.305858 0.000000
v 4.326425 -0.305858 0.860702
v 4.075368 -0.305858 1.688327
v 3.667673 -0.305858 2.451072
v 3.119007 -0.305858 3.119623
v 2.450456 -0.305858 3.668288
v 1.687712 -0.305858 4.075984
v 0.860086 -0.305858 4.327041
v -0.000616 -0.305858 4.411813
v -0.861317 -0.305858 4.327041
v -1.688943 -0.305858 4.075984
v -2.451688 -0.305858 3.668288
v -3.120238 -0.305858 3.119623
v -3.668903 -0.305858 2.451073
v -4.076599 -0.305858 1.688328
v -4.327656 -0.305858 0.860702
v -4.412428 -0.305858 -0.000000
v -4.327656 -0.305858 -0.860702
v -4.076599 -0.305858 -1.688328
v -3.668904 -0.305858 -2.451071
v -3.120239 -0.305858 -3.119622
v -2.451688 -0.305858 -3.668288
v -1.688943 -0.305858 -4.075984
v -0.861317 -0.305858 -4.327041
v -1.686646 -0.676267 4.070437
v -0.860146 -0.676267 4.321154
v -3.663913 -0.676267 -2.447736
v -4.071053 -0.676267 -1.686031
v 3.662682 -0.676267 -2.447737
v 3.114763 -0.676267 -3.115378
v 1.685415 -0.676267 4.070437
v 2.447121 -0.676267 3.663297
v -4.321769 -0.676267 0.859531
v -4.071053 -0.676267 1.686031
v 0.858915 -0.676267 -4.321153
v -0.000615 -0.676267 -4.405810
v -0.860146 -0.676267 -4.321154
v 4.069822 -0.676267 1.686030
v 4.320538 -0.676267 0.859531
v -2.448352 -0.676267 3.663297
v -3.115994 -0.676267 -3.115378
v 4.069822 -0.676267 -1.686030
v 0.858915 -0.676267 4.321154
v -4.406425 -0.676267 -0.000000
v 1.685415 -0.676267 -4.070437
v 3.662682 -0.676267 2.447737
v -3.115993 -0.676267 3.115378
v -2.448352 -0.676267 -3.663297
v 4.320538 -0.676267 -0.859531
v -0.000616 -0.676267 4.405810
v -4.321769 -0.676267 -0.859531
v 2.447122 -0.676267 -3.663297
v 3.114763 -0.676267 3.115378
v -3.663912 -0.676267 2.447737
v -1.686646 -0.676267 -4.070437
v 4.405194 -0.676267 0.000000
vt 0.296822 0.485388
vt 0.250000 0.490000
vt 0.203178 0.485388
vt 0.158156 0.471731
vt 0.116663 0.449553
vt 0.080294 0.419706
vt 0.050447 0.383337
vt 0.028269 0.341844
vt 0.014612 0.296822
vt 0.010000 0.250000
vt 0.014612 0.203178
vt 0.028269 0.158156
vt 0.050447 0.116663
vt 0.080294 0.080294
vt 0.116663 0.050447
vt 0.158156 0.028269
vt 0.203178 0.014612
vt 0.250000 0.010000
vt 0.296822 0.014612
vt 0.341844 0.028269
vt 0.383337 0.050447
vt 0.419706 0.080294
vt 0.449553 0.116663
vt 0.471731 0.158156
vt 0.485388 0.203178
vt 0.490000 0.250000
vt 0.485388 0.296822
vt 0.471731 0.341844
vt 0.449553 0.383337
vt 0.419706 0.419706
vt 0.383337 0.449553
vt 0.341844 0.471731
vt 0.750000 0.490000
vt 0.796822 0.485388
vt 0.841844 0.471731
vt 0.883337 0.449553
vt 0.919706 0.419706
vt 0.949553 0.383337
vt 0.971731 0.341844
vt 0.985388 0.296822
vt 0.990000 0.250000
vt 0.985388 0.203178
vt 0.971731 0.158156
vt 0.949553 0.116663
vt 0.919706 0.080294
vt 0.883337 0.050447
vt 0.841844 0.028269
vt 0.796822 0.014612
vt 0.750000 0.010000
vt 0.703178 0.014612
vt 0.658156 0.028269
vt 0.616663 0.050447
vt 0.580294 0.080294
vt 0.550447 0.116663
vt 0.528269 0.158156
vt 0.514612 0.203178
vt 0.510000 0.250000
vt 0.514612 0.296822
vt 0.528269 0.341844
vt 0.550447 0.383337
vt 0.580294 0.419706
vt 0.616663 0.449553
vt 0.658156 0.471731
vt 0.703178 0.485388
vt 1.000000 0.500000
vt 1.000000 1.000000
vt 0.968750 1.000000
vt 0.968750 0.500000
vt 0.937500 1.000000
vt 0.937500 0.500000
vt 0.906250 1.000000
vt 0.906250 0.500000
vt 0.875000 1.000000
vt 0.875000 0.500000
vt 0.843750 1.000000
vt 0.843750 0.500000
vt 0.812500 1.000000
vt 0.812500 0.500000
vt 0.781250 1.000000
vt 0.781250 0.500000
vt 0.750000 1.000000
vt 0.750000 0.500000
vt 0.718750 1.000000
vt 0.718750 0.500000
vt 0.687500 1.000000
vt 0.687500 0.500000
vt 0.656250 1.000000
vt 0.656250 0.500000
vt 0.625000 1.000000
vt 0.625000 0.500000
vt 0.593750 1.000000
vt 0.593750 0.500000
vt 0.562500 1.000000
vt 0.562500 0.500000
vt 0.531250 1.000000
vt 0.531250 0.500000
vt 0.500000 1.000000
vt 0.500000 0.500000
vt 0.468750 1.000000
vt 0.468750 0.500000
vt 0.437500 1.000000
vt 0.437500 0.500000
vt 0.406250 1.000000
vt 0.406250 0.500000
vt 0.375000 1.000000
vt 0.375000 0.500000
vt 0.343750 1.000000
vt 0.343750 0.500000
vt 0.312500 1.000000
vt 0.312500 0.500000
vt 0.281250 1.000000
vt 0.281250 0.500000
vt 0.250000 1.000000
vt 0.250000 0.500000
vt 0.218750 1.000000
vt 0.218750 0.500000
vt 0.187500 1.000000
vt 0.187500 0.500000
vt 0.156250 1.000000
vt 0.156250 0.500000
vt 0.125000 1.000000
vt 0.125000 0.500000
vt 0.093750 1.000000
vt 0.093750 0.500000
vt 0.062500 1.000000
vt 0.062500 0.500000
vt 0.031250 1.000000
vt 0.031250 0.500000
vt 0.000000 1.000000
vt 0.000000 0.500000
vt 0.468750 0.500000
vt 0.437500 0.500000
vt 0.437500 0.500000
vt 0.468750 0.500000
vt 0.187500 0.500000
vt 0.156250 0.500000
vt 0.156250 0.500000
vt 0.187500 0.500000
vt 0.875000 0.500000
vt 0.843750 0.500000
vt 0.843750 0.500000
vt 0.875000 0.500000
vt 0.593750 0.500000
vt 0.562500 0.500000
vt 0.562500 0.500000
vt 0.593750 0.500000
vt 0.312500 0.500000
vt 0.281250 0.500000
vt 0.281250 0.500000
vt 0.312500 0.500000
vt 1.000000 0.500000
vt 0.968750 0.500000
vt 0.968750 0.500000
vt 1.000000 0.500000
vt 0.031250 0.500000
vt 0.000000 0.500000
vt 0.000000 0.500000
vt 0.031250 0.500000
vt 0.718750 0.500000
vt 0.687500 0.500000
vt 0.687500 0.500000
vt 0.718750 0.500000
vt 0.406250 0.500000
vt 0.406250 0.500000
vt 0.125000 0.500000
vt 0.125000 0.500000
vt 0.812500 0.500000
vt 0.812500 0.500000
vt 0.531250 0.500000
vt 0.531250 0.500000
vt 0.250000 0.500000
vt 0.250000 0.500000
vt 0.937500 0.500000
vt 0.937500 0.500000
vt 0.656250 0.500000
vt 0.656250 0.500000
vt 0.375000 0.500000
vt 0.375000 0.500000
vt 0.093750 0.500000
vt 0.093750 0.500000
vt 0.781250 0.500000
vt 0.781250 0.500000
vt 0.500000 0.500000
vt 0.500000 0.500000
vt 0.218750 0.500000
vt 0.218750 0.500000
vt 0.906250 0.500000
vt 0.906250 0.500000
vt 0.625000 0.500000
vt 0.625000 0.500000
vt 0.343750 0.500000
vt 0.343750 0.500000
vt 0.062500 0.500000
vt 0.062500 0.500000
vt 0.750000 0.500000
vt 0.750000 0.500000
vt 0.718750 0.500000
vt 0.687500 0.500000
vt 0.437500 0.500000
vt 0.406250 0.500000
vt 0.156250 0.500000
vt 0.125000 0.500000
vt 0.843750 0.500000
vt 0.812500 0.500000
vt 0.562500 0.500000
vt 0.531250 0.500000
vt 0.281250 0.500000
vt 0.250000 0.500000
vt 0.968750 0.500000
vt 0.937500 0.500000
vt 0.656250 0.500000
vt 0.375000 0.500000
vt 0.093750 0.500000
vt 0.781250 0.500000
vt 0.500000 0.500000
vt 0.218750 0.500000
vt 0.906250 0.500000
vt 0.625000 0.500000
vt 0.343750 0.500000
vt 0.062500 0.500000
vt 0.750000 0.500000
vt 0.468750 0.500000
vt 0.187500 0.500000
vt 0.875000 0.500000
vt 0.593750 0.500000
vt 0.312500 0.500000
vt 0.031250 0.500000
vt 1.000000 0.500000
vt 0.000000 0.500000
vn 0.0000 1.0000 0.0000
vn 0.0000 -1.0000 -0.0000
vn 0.0000 0.8005 -0.5993
vn 0.0000 0.9437 -0.3308
vn 0.0645 0.9437 -0.3244
vn 0.3156 0.7743 -0.5485
vn 0.1266 0.9437 -0.3056
vn 0.5672 0.7094 -0.4183
vn 0.1838 0.9437 -0.2750
vn 0.7335 0.6319 -0.2505
vn 0.2339 0.9437 -0.2339
vn 0.8257 0.5589 -0.0764
vn 0.2750 0.9437 -0.1838
vn 0.8632 0.4969 0.0894
vn 0.3056 0.9437 -0.1266
vn 0.8616 0.4464 0.2416
vn 0.3244 0.9437 -0.0645
vn 0.8317 0.4059 0.3787
vn 0.3308 0.9437 0.0000
vn 0.7807 0.3736 0.5009
vn 0.3244 0.9437 0.0645
vn 0.7132 0.3480 0.6084
vn 0.3056 0.9437 0.1266
vn 0.6327 0.3278 0.7016
vn 0.2750 0.9437 0.1838
vn 0.5419 0.3119 0.7804
vn 0.2339 0.9437 0.2339
vn 0.4429 0.2998 0.8449
vn 0.1838 0.9437 0.2750
vn 0.3376 0.2908 0.8952
vn 0.1266 0.9437 0.3056
vn 0.2276 0.2847 0.9312
vn 0.0645 0.9437 0.3244
vn 0.1146 0.2810 0.9528
vn 0.0000 0.9437 0.3308
vn 0.0000 0.2799 0.9600
vn -0.0645 0.9437 0.3244
vn -0.1146 0.2810 0.9528
vn -0.1266 0.9437 0.3056
vn -0.2276 0.2847 0.9312
vn -0.1838 0.9437 0.2750
vn -0.3376 0.2908 0.8952
vn -0.2339 0.9437 0.2339
vn -0.4429 0.2998 0.8449
vn -0.2750 0.9437 0.1838
vn -0.5419 0.3119 0.7804
vn -0.3056 0.9437 0.1266
vn -0.6327 0.3278 0.7016
vn -0.3244 0.9437 0.0645
vn -0.7132 0.3480 0.6084
vn -0.3308 0.9437 0.0000
vn -0.7807 0.3736 0.5009
vn -0.3244 0.9437 -0.0645
vn -0.8317 0.4059 0.3787
vn -0.3056 0.9437 -0.1266
vn -0.8616 0.4464 0.2416
vn -0.2750 0.9437 -0.1838
vn -0.8632 0.4969 0.0894
vn -0.2339 0.9437 -0.2339
vn -0.8257 0.5589 -0.0764
vn -0.1838 0.9437 -0.2750
vn -0.7335 0.6319 -0.2505
vn -0.1266 0.9437 -0.3056
vn -0.5672 0.7094 -0.4183
vn -0.0645 0.9437 -0.3244
vn -0.3156 0.7743 -0.5485
vn -0.1786 -0.4020 0.8980
vn -0.3504 -0.4020 0.8459
vn -0.1457 -0.9246 0.3518
vn -0.0743 -0.9246 0.3735
vn -0.8459 -0.4020 -0.3504
vn -0.7613 -0.4020 -0.5087
vn -0.3167 -0.9246 -0.2116
vn -0.3518 -0.9246 -0.1457
vn 0.6474 -0.4020 -0.6474
vn 0.7613 -0.4020 -0.5087
vn 0.3167 -0.9246 -0.2116
vn 0.2693 -0.9246 -0.2693
vn 0.5087 -0.4020 0.7613
vn 0.3504 -0.4020 0.8459
vn 0.1457 -0.9246 0.3518
vn 0.2116 -0.9246 0.3167
vn -0.8459 -0.4020 0.3504
vn -0.8980 -0.4020 0.1786
vn -0.3735 -0.9246 0.0743
vn -0.3518 -0.9246 0.1457
vn 0.0000 -0.4020 -0.9156
vn 0.1786 -0.4020 -0.8980
vn 0.0743 -0.9246 -0.3735
vn 0.0000 -0.9246 -0.3808
vn -0.1786 -0.4020 -0.8980
vn -0.0743 -0.9246 -0.3735
vn 0.8980 -0.4020 0.1786
vn 0.8459 -0.4020 0.3504
vn 0.3518 -0.9246 0.1457
vn 0.3735 -0.9246 0.0743
vn -0.5087 -0.4020 0.7613
vn -0.2116 -0.9246 0.3167
vn -0.6474 -0.4020 -0.6474
vn -0.2693 -0.9246 -0.2693
vn 0.8459 -0.4020 -0.3504
vn 0.3518 -0.9246 -0.1457
vn 0.1786 -0.4020 0.8980
vn 0.0743 -0.9246 0.3735
vn -0.9156 -0.4020 0.0000
vn -0.3808 -0.9246 0.0000
vn 0.3504 -0.4020 -0.8459
vn 0.1457 -0.9246 -0.3518
vn 0.7613 -0.4020 0.5087
vn 0.3167 -0.9246 0.2116
vn -0.6474 -0.4020 0.6474
vn -0.2693 -0.9246 0.2693
vn -0.5087 -0.4020 -0.7613
vn -0.2116 -0.9246 -0.3167
vn 0.8980 -0.4020 -0.1786
vn 0.3735 -0.9246 -0.0743
vn 0.0000 -0.4020 0.9156
vn 0.0000 -0.9246 0.3808
vn -0.8980 -0.4020 -0.1786
vn -0.3735 -0.9246 -0.0743
vn 0.5087 -0.4020 -0.7613
vn 0.2116 -0.9246 -0.3167
vn 0.6474 -0.4020 0.6474
vn 0.2693 -0.9246 0.2693
vn -0.7613 -0.4020 0.5087
vn -0.3167 -0.9246 0.2116
vn -0.3504 -0.4020 -0.8459
vn -0.1457 -0.9246 -0.3518
vn 0.9156 -0.4020 0.0000
vn 0.3808 -0.9246 0.0000
vn 0.0000 0.0000 1.0000
usemtl None
s off
f 4/1/1 2/2/1 64/3/1 62/4/1 60/5/1 58/6/1 56/7/1 54/8/1 52/9/1 50/10/1 48/11/1 46/12/1 44/13/1 42/14/1 40/15/1 38/16/1 36/17/1 34/18/1 32/19/1 30/20/1 28/21/1 26/22/1 24/23/1 22/24/1 20/25/1 18/26/1 16/27/1 14/28/1 12/29/1 10/30/1 8/31/1 6/32/1
f 65/33/2 66/34/2 67/35/2 68/36/2 69/37/2 70/38/2 71/39/2 72/40/2 73/41/2 74/42/2 75/43/2 76/44/2 77/45/2 78/46/2 79/47/2 80/48/2 81/49/2 82/50/2 83/51/2 84/52/2 85/53/2 86/54/2 87/55/2 88/56/2 89/57/2 90/58/2 91/59/2 92/60/2 93/61/2 94/62/2 95/63/2 96/64/2
s 1
f 1/65/3 2/66/4 4/67/5 3/68/6
f 3/68/6 4/67/5 6/69/7 5/70/8
f 5/70/8 6/69/7 8/71/9 7/72/10
f 7/72/10 8/71/9 10/73/11 9/74/12
f 9/74/12 10/73/11 12/75/13 11/76/14
f 11/76/14 12/75/13 14/77/15 13/78/16
f 13/78/16 14/77/15 16/79/17 15/80/18
f 15/80/18 16/79/17 18/81/19 17/82/20
f 17/82/20 18/81/19 20/83/21 19/84/22
f 19/84/22 20/83/21 22/85/23 21/86/24
f 21/86/24 22/85/23 24/87/25 23/88/26
f 23/88/26 24/87/25 26/89/27 25/90/28
f 25/90/28 26/89/27 28/91/29 27/92/30
f 27/92/30 28/91/29 30/93/31 29/94/32
f 29/94/32 30/93/31 32/95/33 31/96/34
f 31/96/34 32/95/33 34/97/35 33/98/36
f 33/98/36 34/97/35 36/99/37 35/100/38
f 35/100/38 36/99/37 38/101/39 37/102/40
f 37/102/40 38/101/39 40/103/41 39/104/42
f 39/104/42 40/103/41 42/105/43 41/106/44
f 41/106/44 42/105/43 44/107/45 43/108/46
f 43/108/46 44/107/45 46/109/47 45/110/48
f 45/110/48 46/109/47 48/111/49 47/112/50
f 47/112/50 48/111/49 50/113/51 49/114/52
f 49/114/52 50/113/51 52/115/53 51/116/54
f 51/116/54 52/115/53 54/117/55 53/118/56
f 53/118/56 54/117/55 56/119/57 55/120/58
f 55/120/58 56/119/57 58/121/59 57/122/60
f 57/122/60 58/121/59 60/123/61 59/124/62
f 59/124/62 60/123/61 62/125/63 61/126/64
f 61/126/64 62/125/63 64/127/65 63/128/66
f 63/128/66 64/127/65 2/129/4 1/130/3
f 130/131/67 129/132/68 83/133/69 82/134/70
f 132/135/71 131/136/72 92/137/73 91/138/74
f 134/139/75 133/140/76 70/141/77 69/142/78
f 136/143/79 135/144/80 79/145/81 78/146/82
f 138/147/83 137/148/84 88/149/85 87/150/86
f 140/151/87 139/152/88 66/153/89 65/154/90
f 141/155/91 140/156/87 65/157/90 96/158/92
f 143/159/93 142/160/94 75/161/95 74/162/96
f 129/132/68 144/163/97 84/164/98 83/133/69
f 131/136/72 145/165/99 93/166/100 92/137/73
f 133/140/76 146/167/101 71/168/102 70/141/77
f 135/144/80 147/169/103 80/170/104 79/145/81
f 137/148/84 148/171/105 89/172/106 88/149/85
f 139/152/88 149/173/107 67/174/108 66/153/89
f 142/160/94 150/175/109 76/176/110 75/161/95
f 144/163/97 151/177/111 85/178/112 84/164/98
f 145/165/99 152/179/113 94/180/114 93/166/100
f 146/167/101 153/181/115 72/182/116 71/168/102
f 147/169/103 154/183/117 81/184/118 80/170/104
f 148/171/105 155/185/119 90/186/120 89/172/106
f 149/173/107 156/187/121 68/188/122 67/174/108
f 150/175/109 157/189/123 77/190/124 76/176/110
f 151/177/111 158/191/125 86/192/126 85/178/112
f 152/179/113 159/193/127 95/194/128 94/180/114
f 153/181/115 160/195/129 73/196/130 72/182/116
f 154/183/117 130/131/67 82/134/70 81/184/118
f 155/185/119 132/135/71 91/138/74 90/186/120
f 156/187/121 134/139/75 69/142/78 68/188/122
f 157/189/123 136/143/79 78/146/82 77/190/124
f 158/191/125 138/147/83 87/150/86 86/192/126
f 159/193/127 141/155/91 96/158/92 95/194/128
f 160/195/129 143/159/93 74/162/96 73/196/130
f 21/86/24 19/84/22 106/197/131 107/198/131
f 39/104/42 37/102/40 115/199/131 116/200/131
f 57/122/60 55/120/58 124/201/131 125/202/131
f 13/78/16 11/76/14 102/203/131 103/204/131
f 31/96/34 29/94/32 111/205/131 112/206/131
f 49/114/52 47/112/50 120/207/131 121/208/131
f 5/70/8 3/68/6 98/209/131 99/210/131
f 23/88/26 21/86/24 107/198/131 108/211/131
f 41/106/44 39/104/42 116/200/131 117/212/131
f 59/124/62 57/122/60 125/202/131 126/213/131
f 15/80/18 13/78/16 103/204/131 104/214/131
f 33/98/36 31/96/34 112/206/131 113/215/131
f 51/116/54 49/114/52 121/208/131 122/216/131
f 7/72/10 5/70/8 99/210/131 100/217/131
f 25/90/28 23/88/26 108/211/131 109/218/131
f 43/108/46 41/106/44 117/212/131 118/219/131
f 61/126/64 59/124/62 126/213/131 127/220/131
f 17/82/20 15/80/18 104/214/131 105/221/131
f 35/100/38 33/98/36 113/215/131 114/222/131
f 53/118/56 51/116/54 122/216/131 123/223/131
f 9/74/12 7/72/10 100/217/131 101/224/131
f 27/92/30 25/90/28 109/218/131 110/225/131
f 45/110/48 43/108/46 118/219/131 119/226/131
f 63/128/66 61/126/64 127/220/131 128/227/131
f 19/84/22 17/82/20 105/221/131 106/197/131
f 37/102/40 35/100/38 114/222/131 115/199/131
f 55/120/58 53/118/56 123/223/131 124/201/131
f 11/76/14 9/74/12 101/224/131 102/203/131
f 29/94/32 27/92/30 110/225/131 111/205/131
f 47/112/50 45/110/48 119/226/131 120/207/131
f 3/68/6 1/65/3 97/228/131 98/209/131
f 1/130/3 63/128/66 128/227/131 97/229/131
f 17/82/20 19/84/22 143/159/93 160/195/129
f 61/126/64 63/128/66 141/155/91 159/193/127
f 43/108/46 45/110/48 138/147/83 158/191/125
f 25/90/28 27/92/30 136/143/79 157/189/123
f 7/72/10 9/74/12 134/139/75 156/187/121
f 51/116/54 53/118/56 132/135/71 155/185/119
f 33/98/36 35/100/38 130/131/67 154/183/117
f 15/80/18 17/82/20 160/195/129 153/181/115
f 59/124/62 61/126/64 159/193/127 152/179/113
f 41/106/44 43/108/46 158/191/125 151/177/111
f 23/88/26 25/90/28 157/189/123 150/175/109
f 5/70/8 7/72/10 156/187/121 149/173/107
f 49/114/52 51/116/54 155/185/119 148/171/105
f 31/96/34 33/98/36 154/183/117 147/169/103
f 13/78/16 15/80/18 153/181/115 146/167/101
f 57/122/60 59/124/62 152/179/113 145/165/99
f 39/104/42 41/106/44 151/177/111 144/163/97
f 21/86/24 23/88/26 150/175/109 142/160/94
f 3/68/6 5/70/8 149/173/107 139/152/88
f 47/112/50 49/114/52 148/171/105 137/148/84
f 29/94/32 31/96/34 147/169/103 135/144/80
f 11/76/14 13/78/16 146/167/101 133/140/76
f 55/120/58 57/122/60 145/165/99 131/136/72
f 37/102/40 39/104/42 144/163/97 129/132/68
f 19/84/22 21/86/24 142/160/94 143/159/93
f 63/128/66 1/130/3 140/156/87 141/155/91
f 1/65/3 3/68/6 139/152/88 140/151/87
f 45/110/48 47/112/50 137/148/84 138/147/83
f 27/92/30 29/94/32 135/144/80 136/143/79
f 9/74/12 11/76/14 133/140/76 134/139/75
f 53/118/56 55/120/58 131/136/72 132/135/71
f 35/100/38 37/102/40 129/132/68 130/131/67
